<svg xmlns="http://www.w3.org/2000/svg" width="160.749" height="33.582" viewBox="0 0 160.749 33.582">
  <g id="logo_gotoimapct_header" transform="translate(18790.207 -13234.698)">
    <path id="Path_78647" data-name="Path 78647" d="M150.919,98.952a8.324,8.324,0,0,0-8.326,8.3h0a4.46,4.46,0,0,1-4.619,4.462H136.9a4.457,4.457,0,0,1-4.619-4.462v-4.467h6.767V99.468h-6.757V95.8H129.1v9.528h-.241a8.324,8.324,0,0,0-16.187,0h-.241v-5.86h-3.154v1.269a8.314,8.314,0,1,0-5.208,14.823,5.863,5.863,0,0,0,5.008-2.686h.2v1.079c0,2.445-2.331,4.6-5.411,4.6a9.483,9.483,0,0,1-7.054-3.137h-.193V119.3a10.476,10.476,0,0,0,7.5,2.882,8.348,8.348,0,0,0,8.326-8.3v-4.692h.241a8.321,8.321,0,0,0,16.189,0h.466a8.319,8.319,0,0,0,14.837,2.942,8.317,8.317,0,1,0,6.743-13.165m-46.265,12.762h-1.076a4.465,4.465,0,1,1,0-8.925h1.076a4.465,4.465,0,1,1,0,8.925m21.274-4.462h0a4.46,4.46,0,0,1-4.619,4.462H120.24a4.464,4.464,0,1,1,0-8.922h1.076a4.456,4.456,0,0,1,4.619,4.46m30.141,0h0a4.46,4.46,0,0,1-4.619,4.462h-1.072a4.464,4.464,0,1,1,0-8.922h1.076a4.456,4.456,0,0,1,4.619,4.46" transform="translate(-18886 13140.37)" fill="#0c3"/>
    <path id="Path_78648" data-name="Path 78648" d="M648.807,122.467H647.75a4.374,4.374,0,0,1-4.535-4.39h0a4.384,4.384,0,0,1,4.535-4.39h1.057a4.43,4.43,0,0,1,4.214,2.72l2.708-1.689a8.179,8.179,0,1,0,0,6.707l-2.722-1.663a4.416,4.416,0,0,1-4.2,2.705" transform="translate(-19298.938 13129.68)" fill="#002e6d"/>
    <path id="Path_78649" data-name="Path 78649" d="M388.581,125.99h-3.19V109.5h3.181v2.172a4.626,4.626,0,0,1,1.728-1.5,5.806,5.806,0,0,1,2.87-.673,6.173,6.173,0,0,1,3.041.724,4.851,4.851,0,0,1,1.892,1.9,6.572,6.572,0,0,1,9.634-.956,5.975,5.975,0,0,1,1.779,4.424v10.378l-3.191.019v-9.61a4.344,4.344,0,0,0-1-2.855,2.964,2.964,0,0,0-2.447-.944,3.434,3.434,0,0,0-2.655,1.142,4.246,4.246,0,0,0-1.035,2.971v9.27H396v-9.584a3.951,3.951,0,0,0-.951-2.746,3.742,3.742,0,0,0-2.773-1.055,3.429,3.429,0,0,0-2.655,1.142,4.656,4.656,0,0,0-1.038,3.4Z" transform="translate(-19105.707 13129.984)" fill="#002e6d"/>
    <rect id="Rectangle_4162" data-name="Rectangle 4162" width="3.178" height="16.493" transform="translate(-18725.117 13239.481)" fill="#002e6d"/>
    <path id="Path_78650" data-name="Path 78650" d="M367.06,92.771a1.561,1.561,0,0,1-1.113-.434,1.448,1.448,0,0,1-.459-1.088,1.479,1.479,0,0,1,.459-1.1,1.542,1.542,0,0,1,1.113-.446,1.571,1.571,0,0,1,1.137.446,1.482,1.482,0,0,1,.461,1.1,1.448,1.448,0,0,1-.461,1.088,1.593,1.593,0,0,1-1.137.434" transform="translate(-19090.607 13145)" fill="#002e6d"/>
    <path id="Path_78651" data-name="Path 78651" d="M719.3,111.674a5.07,5.07,0,0,1-1.064.111h-1.076a4.459,4.459,0,0,1-4.617-4.472v-4.477h6.743V99.513h-6.733V95.83H709.37v11.128a10.272,10.272,0,0,0,.241,2.273h0a8.325,8.325,0,0,0,1.6,3.292,10.008,10.008,0,0,0,1.448,1.414,8.256,8.256,0,0,0,4.293,1.668h.012a1.364,1.364,0,0,1,.241.014h.2a8.568,8.568,0,0,0,1.887-.152Z" transform="translate(-19351.496 13140.348)" fill="#002e6d"/>
    <path id="Path_78652" data-name="Path 78652" d="M500.432,109.2a8.275,8.275,0,0,0-5.249,1.868V109.2H492v24.3h3.178v-9.523a8.321,8.321,0,1,0,5.249-14.775m5.155,8.321h0a4.463,4.463,0,0,1-4.617,4.47h-1.076a4.472,4.472,0,1,1,0-8.939h1.076a4.462,4.462,0,0,1,4.622,4.47Z" transform="translate(-19186.588 13130.204)" fill="#002e6d"/>
    <path id="Path_78653" data-name="Path 78653" d="M574.614,109.19a8.324,8.324,0,1,0,8.324,8.324,8.324,8.324,0,0,0-8.324-8.324m5.155,8.324h0a4.463,4.463,0,0,1-4.617,4.47h-1.076a4.472,4.472,0,1,1,0-8.939h1.074A4.46,4.46,0,0,1,579.769,117.514Z" transform="translate(-19242.949 13130.212)" fill="#0c3"/>
    <path id="Path_78654" data-name="Path 78654" d="M609.1,109.19a8.326,8.326,0,0,0,0,16.652Z" transform="translate(-19269.105 13130.212)" fill="#0c3"/>
    <path id="Path_78655" data-name="Path 78655" d="M608.9,113.83a8.39,8.39,0,0,0-2.9,2.785,4.455,4.455,0,0,1,0,8.835,8.377,8.377,0,0,0,2.9,2.785,8.314,8.314,0,0,0,0-14.405" transform="translate(-19273.076 13126.692)" fill="#002e6d"/>
    <path id="Path_78656" data-name="Path 78656" d="M650.954,205.542a2.774,2.774,0,0,0-.439-.321,2.9,2.9,0,1,0,0,5.013,2.819,2.819,0,0,0,.483-.357,1.252,1.252,0,0,0,1.086.637h.125V204.83h-.125a1.255,1.255,0,0,0-1.127.712m-1.487,3.5a1.686,1.686,0,0,1-.222.014h-.357a1.335,1.335,0,1,1,0-2.667h.374a1.36,1.36,0,0,1,.222.017,1.327,1.327,0,0,1,0,2.635" transform="translate(-19303.547 13057.654)" fill="#002e6d"/>
    <path id="Path_78657" data-name="Path 78657" d="M707.414,204.9a2.9,2.9,0,1,0,1.448,2.508,2.9,2.9,0,0,0-1.448-2.508m-1.048,3.832a1.362,1.362,0,0,1-.224.017h-.355a1.335,1.335,0,1,1,0-2.655h.355a1.689,1.689,0,0,1,.224.014,1.33,1.33,0,0,1,0,2.635" transform="translate(-19346.717 13057.896)" fill="#002e6d"/>
    <path id="Path_78658" data-name="Path 78658" d="M548.084,205.23a2.9,2.9,0,1,0,1.448,2.507,2.9,2.9,0,0,0-1.448-2.507m-1.047,3.825a1.686,1.686,0,0,1-.224.014h-.355a1.335,1.335,0,1,1,0-2.667h.355a1.362,1.362,0,0,1,.224.017,1.33,1.33,0,0,1,0,2.635" transform="translate(-19225.84 13057.646)" fill="#002e6d"/>
    <path id="Path_78659" data-name="Path 78659" d="M622.751,194.185v2.746a2.787,2.787,0,0,0-.3-.2,2.9,2.9,0,1,0,.3,4.81.543.543,0,0,0,.538.483h.864V193.64H623.3a.545.545,0,0,0-.545.545m-1.344,6.371a1.687,1.687,0,0,1-.222.014h-.357a1.335,1.335,0,1,1,0-2.667h.357a1.357,1.357,0,0,1,.222.017,1.33,1.33,0,0,1,0,2.635" transform="translate(-19282.258 13066.143)" fill="#002e6d"/>
    <path id="Path_78660" data-name="Path 78660" d="M597.512,204.295a1.735,1.735,0,0,0-1.409.56h0a.439.439,0,0,0-.442-.439h-.941v5.167a.545.545,0,0,0,.545.545h.907v-3.384a1.139,1.139,0,0,1,.287-.808.965.965,0,0,1,.724-.3.927.927,0,0,1,.724.3,1.108,1.108,0,0,1,.263.755v2.9a.545.545,0,0,0,.545.545h.907v-3.736a1.993,1.993,0,0,0-.606-1.487,2.061,2.061,0,0,0-1.518-.6" transform="translate(-19264.518 13058.063)" fill="#002e6d"/>
    <path id="Path_78661" data-name="Path 78661" d="M734.465,204.9a2.051,2.051,0,0,0-1.516-.6,1.735,1.735,0,0,0-1.409.56h0a.437.437,0,0,0-.439-.439h-.941v5.167a.545.545,0,0,0,.543.545h.907v-3.384a1.139,1.139,0,0,1,.289-.808.965.965,0,0,1,.724-.3.927.927,0,0,1,.724.3,1.107,1.107,0,0,1,.263.755v2.9a.545.545,0,0,0,.545.545h.907v-3.736a2,2,0,0,0-.6-1.5" transform="translate(-19367.27 13058.063)" fill="#002e6d"/>
    <path id="Path_78662" data-name="Path 78662" d="M574.215,205.375v2.744a1.139,1.139,0,0,1-.287.811.965.965,0,0,1-.724.3.932.932,0,0,1-.724-.3,1.1,1.1,0,0,1-.265-.758V204.83h-.932a.545.545,0,0,0-.545.545v3.116a1.993,1.993,0,0,0,.608,1.487,2.042,2.042,0,0,0,1.516.6,1.738,1.738,0,0,0,1.412-.557h0a.545.545,0,0,0,.545.545h.837V204.83h-.9a.545.545,0,0,0-.543.545" transform="translate(-19246.322 13057.654)" fill="#002e6d"/>
    <path id="Path_78663" data-name="Path 78663" d="M694.555,195.779a.724.724,0,0,0-.533.212.7.7,0,0,0-.212.514.678.678,0,0,0,.212.507.741.741,0,0,0,.533.2.763.763,0,0,0,.545-.2.678.678,0,0,0,.212-.507.7.7,0,0,0-.212-.519.756.756,0,0,0-.545-.208" transform="translate(-19339.691 13064.521)" fill="#002e6d"/>
    <path id="Path_78664" data-name="Path 78664" d="M693.81,209.995a.545.545,0,0,0,.545.545h.965v-5.71h-1.5Z" transform="translate(-19339.693 13057.654)" fill="#002e6d"/>
    <path id="Path_78665" data-name="Path 78665" d="M529.356,196.013a1,1,0,0,1,.275-.751.965.965,0,0,1,.71-.27h.181v-1.359h-.241a2.471,2.471,0,0,0-1.689.577,2.023,2.023,0,0,0-.659,1.615v.509H526.87v1.248h1.016v4.462h.907a.545.545,0,0,0,.545-.545v-3.917h.8a.545.545,0,0,0,.543-.545v-.7h-1.342Z" transform="translate(-19213.041 13066.149)" fill="#002e6d"/>
    <path id="Path_78666" data-name="Path 78666" d="M676.194,198.962l-.241-.012H674.8v4.006a3.693,3.693,0,0,0,.082.818h0a2.99,2.99,0,0,0,.579,1.185,3.4,3.4,0,0,0,.524.509,2.954,2.954,0,0,0,1.545.6h.292a3.075,3.075,0,0,0,.681-.056v-1.368a1.989,1.989,0,0,1-.384.039h-.273a1.6,1.6,0,0,1-1.663-1.61V201.6h2.331v-1.233h-2.331Z" transform="translate(-19325.27 13062.115)" fill="#002e6d"/>
    <path id="Path_78667" data-name="Path 78667" d="M749.96,95.87h1.226v.323h-.41v.985h-.405v-.985h-.41Z" transform="translate(-19382.291 13140.317)" fill="#002e6d"/>
    <path id="Path_78668" data-name="Path 78668" d="M755.78,95.87h.531l.205.8.2-.8h.531v1.308h-.331v-1l-.253,1h-.3l-.256-1v1h-.331Z" transform="translate(-19386.707 13140.317)" fill="#002e6d"/>
  </g>
</svg>
